<?xml version="1.0" standalone="yes"?>

<svg version="1.1" viewBox="0.0 0.0 100.0 100.0" fill="none" stroke="none" stroke-linecap="square" stroke-miterlimit="10" xmlns="http://www.w3.org/2000/svg" xmlns:xlink="http://www.w3.org/1999/xlink"><clipPath id="p.0"><path d="m0 0l100.0 0l0 100.0l-100.0 0l0 -100.0z" clip-rule="nonzero"></path></clipPath><g clip-path="url(#p.0)"><path fill="#000000" fill-opacity="0.0" d="m0 0l100.0 0l0 100.0l-100.0 0z" fill-rule="evenodd"></path><path fill="#000000" fill-opacity="0.0" d="m8.000578 31.227999l32.061172 2.0599365E-4l9.907246 -29.222034l9.907242 29.222034l32.061172 -2.0599365E-4l-25.938164 18.060007l9.907654 29.221905l-25.937904 -18.060337l-25.937908 18.060337l9.90765 -29.221905z" fill-rule="evenodd"></path><path stroke="#00295b" stroke-width="2.0" stroke-linejoin="round" stroke-linecap="butt" d="m8.000578 31.227999l32.061172 2.0599365E-4l9.907246 -29.222034l9.907242 29.222034l32.061172 -2.0599365E-4l-25.938164 18.060007l9.907654 29.221905l-25.937904 -18.060337l-25.937908 18.060337l9.90765 -29.221905z" fill-rule="evenodd"></path><path fill="#00295b" d="m18.189045 34.632404l24.301525 1.5258789E-4l7.50943 -21.727045l7.50943 21.727045l24.301529 -1.5258789E-4l-19.660446 13.427902l7.5097427 21.726948l-19.660255 -13.428146l-19.660252 13.428146l7.509739 -21.726948z" fill-rule="evenodd"></path><path stroke="#00295b" stroke-width="1.0" stroke-linejoin="round" stroke-linecap="butt" d="m18.189045 34.632404l24.301525 1.5258789E-4l7.50943 -21.727045l7.50943 21.727045l24.301529 -1.5258789E-4l-19.660446 13.427902l7.5097427 21.726948l-19.660255 -13.428146l-19.660252 13.428146l7.509739 -21.726948z" fill-rule="evenodd"></path></g></svg>

